# xmcd
#
# Track frame offsets: 
#        150
#        25952
#        63735
#        94984
#        113987
#        128782
#        150362
#        167282
#        182056
#
# Disc length: 2773 seconds
#
# Revision: 0
# Processed by: cddbd v1.5.2PL0 Copyright (c) Steve Scherf et al.
# Submitted via: ExactAudioCopy v0.95b3
#
DISCID=6f0ad309
DTITLE=If  - If  1970   FLAC
DYEAR=1900
DGENRE=
TTITLE0=I'm Reaching Out On All Sides
TTITLE1=What Did I Say About The Box, Jack ?
TTITLE2=What Can A Friend Say?
TTITLE3=Woman, Can You See (What This Thing Is All About?)
TTITLE4=Raise The Level Of Your Conscious Mind
TTITLE5=Dockland
TTITLE6=The Promised Land
TTITLE7=Raise The Level Of Your Conscious Mind
TTITLE8=I'm Reaching Out On All Sides
EXTD=
EXTT0=
EXTT1=
EXTT2=
EXTT3=
EXTT4=
EXTT5=
EXTT6=
EXTT7=
EXTT8=
PLAYORDER=
